<?xml version="1.0" encoding="UTF-8" standalone="no"?>
<!-- Created with Inkscape (http://www.inkscape.org/) -->
<svg
   xmlns:dc="http://purl.org/dc/elements/1.1/"
   xmlns:cc="http://creativecommons.org/ns#"
   xmlns:rdf="http://www.w3.org/1999/02/22-rdf-syntax-ns#"
   xmlns:svg="http://www.w3.org/2000/svg"
   xmlns="http://www.w3.org/2000/svg"
   xmlns:sodipodi="http://sodipodi.sourceforge.net/DTD/sodipodi-0.dtd"
   xmlns:inkscape="http://www.inkscape.org/namespaces/inkscape"
   width="498.48956"
   height="468.81885"
   id="svg2547"
   sodipodi:version="0.32"
   inkscape:version="0.46"
   version="1.0"
   sodipodi:docname="Héraldique_meuble_Cheval_cabré_d'argent_harnaché2.svg"
   inkscape:output_extension="org.inkscape.output.svg.inkscape">
  <defs
     id="defs2549">
    <inkscape:perspective
       sodipodi:type="inkscape:persp3d"
       inkscape:vp_x="0 : 526.18109 : 1"
       inkscape:vp_y="0 : 1000 : 0"
       inkscape:vp_z="744.09448 : 526.18109 : 1"
       inkscape:persp3d-origin="372.04724 : 350.78739 : 1"
       id="perspective2555" />
    <inkscape:perspective
       id="perspective2825"
       inkscape:persp3d-origin="372.04724 : 350.78739 : 1"
       inkscape:vp_z="744.09448 : 526.18109 : 1"
       inkscape:vp_y="0 : 1000 : 0"
       inkscape:vp_x="0 : 526.18109 : 1"
       sodipodi:type="inkscape:persp3d" />
  </defs>
  <sodipodi:namedview
     id="base"
     pagecolor="#ffffff"
     bordercolor="#666666"
     borderopacity="1.0"
     inkscape:pageopacity="0.0"
     inkscape:pageshadow="2"
     inkscape:zoom="0.35"
     inkscape:cx="375"
     inkscape:cy="520"
     inkscape:document-units="px"
     inkscape:current-layer="layer1"
     showgrid="false"
     inkscape:window-width="640"
     inkscape:window-height="713"
     inkscape:window-x="20"
     inkscape:window-y="20" />
  <metadata
     id="metadata2552">
    <rdf:RDF>
      <cc:Work
         rdf:about="">
        <dc:format>image/svg+xml</dc:format>
        <dc:type
           rdf:resource="http://purl.org/dc/dcmitype/StillImage" />
      </cc:Work>
    </rdf:RDF>
  </metadata>
  <g
     inkscape:label="Calque 1"
     inkscape:groupmode="layer"
     id="layer1"
     transform="translate(-125.75522,-297.95276)">
    <g
       id="g2704"
       transform="translate(124.85678,297.18961)">
      <g
         id="g2706">
        <g
           id="g2708">
          <path
             id="path2710"
             d="M 290.84,455.33 L 290.84,462.537 L 330.596,462.537 L 331.061,456.027"
             style="fill:#ffffff;fill-rule:evenodd;stroke:#000000;stroke-width:2" />
          <path
             id="path2712"
             d="M 308.509,433.708 C 304.15,439.172 294.676,446.611 291.072,455.562 C 300.078,455.132 322.718,455.428 331.294,455.562 C 329.612,452.207 329.027,449.983 328.271,448.123"
             style="fill:#ffffff;fill-rule:evenodd;stroke:#000000;stroke-width:2" />
        </g>
        <g
           id="g2714">
          <path
             id="path2716"
             d="M 1.89844,247.11 L 5.15337,255.945 L 40.9577,243.39 L 37.0053,235.253"
             style="fill:#ffffff;fill-rule:evenodd;stroke:#000000;stroke-width:2" />
          <path
             id="path2718"
             d="M 2.23766,246.263 C 8.36266,231.868 11.2377,221.868 11.9877,221.386 C 21.2688,221.386 28.4877,223.618 39.8685,233.825 C 23.9877,240.118 17.4877,242.993 2.23766,246.263 z"
             style="fill:#ffffff;stroke:#000000;stroke-width:2" />
        </g>
      </g>
      <path
         id="path2720"
         d="M 116.372,95.2996 C 112.306,99.5853 107.663,105.19 99.2291,110.684 C 101.674,115.19 102.828,115.3 104.944,116.838"
         style="fill:#ffffff;fill-rule:evenodd;stroke:#000000;stroke-width:2" />
      <g
         id="g2722">
        <path
           id="path2724"
           d="M 280.404,300.057 C 285.614,303.48 286.098,308.169 291.568,314.197 C 302.099,310.401 309.839,310.662 318.063,310.922 C 316.463,304.782 315.532,296.782 315.532,296.782"
           style="fill:#ffffff;fill-rule:evenodd;stroke:#000000;stroke-width:2" />
        <path
           id="path2726"
           d="M 142.454,19.2198 C 136.671,15.1417 124.621,12.1407 119.668,9.12164 C 118.277,10.3713 116.885,13.3508 130.975,22.0681"
           style="fill:#ffffff;fill-rule:evenodd;stroke:#000000;stroke-width:2" />
        <path
           id="path2728"
           d="M 112.421,175.259 C 112.421,175.259 100.073,160.668 87.0449,161.526 C 77.1803,162.176 41.0458,186.233 21.066,200.934 C 17.9948,203.194 15.4683,215.19 10.9154,223.922 C 20.6928,223.4 26.1413,225.639 32.7094,229.893 C 37.7847,223.101 38.1124,221.622 40.7701,218.25 C 40.4448,215.515 38.1209,212.492 39.2774,211.085 C 40.9614,209.035 46.2072,209.358 50.3236,206.905 C 61.4204,200.291 77.1746,186.653 85.2536,187.499 C 94.0712,188.424 98.3813,202.861 104.554,213.073"
           style="fill:#ffffff;fill-rule:evenodd;stroke:#000000;stroke-width:2" />
        <path
           id="path2730"
           d="M 314.46,302.237 C 316.292,308.648 315.281,319.638 319.223,327.517 C 346.706,344.539 352.565,352.157 359.892,371.118 C 352.851,392.212 346.702,399.147 337.909,413.253 C 320.301,422.566 314.735,426.718 307.499,434.87 C 314.185,437.893 321.055,442.014 328.383,449.159 C 334.245,424.794 344.504,440.641 347.069,445.862 C 352.931,441.19 351.466,433.771 353.297,427.542 C 365.022,411.421 389.57,376.98 389.57,376.98"
           style="fill:#ffffff;fill-rule:evenodd;stroke:#000000;stroke-width:2" />
      </g>
      <g
         id="g2732">
        <path
           id="path2734"
           d="M 392.97,238.088 C 424.795,258.14 455.246,321.655 488.862,289.413 C 476.313,295.641 472.558,292.436 463.947,288.68 C 501.502,284.558 486.755,253.781 498.388,236.286 C 494.999,233.813 492.159,235.37 488.496,237.752 C 484.465,214.852 468.069,208.899 463.215,187.19 C 459.825,192.228 460.925,189.297 458.818,197.815 C 436.926,177.755 444.529,153.94 449.292,140.292 C 426.209,148.261 425.385,166.214 425.11,194.518 C 417.141,183.618 418.057,174.183 419.981,161.543 C 388.563,208.99 447.185,232.714 448.925,249.11 C 440.407,265.872 406.424,238.851 387.005,227.493"
           style="fill:#ffffff;fill-rule:evenodd;stroke:#000000;stroke-width:2" />
        <path
           id="path2736"
           d="M 235.548,173.757 C 251.671,35.2934 178.912,17.871 122.438,33.3451 C 115.316,30.4179 120.843,32.1041 113.219,26.2536 C 133.607,11.8933 166.051,17.1233 179.879,18.4529 C 179.879,20.8463 180.766,18.187 179.879,22.7078 C 185.786,22.4861 190.226,22.4601 197.651,24.8246 C 196.914,26.977 195.378,27.2393 192.848,29.4235 C 205.798,25.8607 231.848,54.7242 240.779,63.3332 C 235.468,62.4469 236.867,63.7427 232.044,62.5815 C 237.996,66.8985 239.404,77.3287 247.786,82.2445 C 243.933,82.7777 248.406,84.4932 241.467,83.7053 C 247.859,89.4911 248.048,99.8836 253.631,103.196 C 251.18,104.683 249.071,105.173 243.348,104.26 C 260.785,112.513 243.7,143.36 258.41,171.079 C 247.405,168.716 246.998,175.876 235.964,173.712"
           style="fill:#ffffff;fill-rule:evenodd;stroke:#000000;stroke-width:2" />
      </g>
      <path
         id="path2738"
         d="M 236.117,172.393 C 246.571,90.3638 228.112,36.9193 157.689,26.2481 C 152.5,22.195 159.697,18.9117 152.648,12.7905 C 143.708,6.66922 133.209,8.19504 128.23,1.76315 C 125.673,3.50793 124.122,4.39084 125.17,5.97153 C 129.051,12.6033 137.26,13.4204 142.029,18.5576 C 146.695,23.5835 143.847,24.1909 142.276,26.5205 C 134.545,26.7557 122.985,31.9263 120.961,34.2823 C 107.056,50.4701 91.3591,68.3192 78.4952,83.2523 C 70.1095,92.9868 76.0323,92.5298 76.9649,99.7031 C 75.2842,107.399 77.2999,109.654 79.7867,113.862 C 82.4477,117.548 87.8842,116.145 89.5254,113.052 C 91.1742,109.945 90.0159,106.324 91.9573,105.093 C 102.828,98.2035 110.537,92.4328 114.84,89.7561 C 113.742,99.7979 112.035,105.813 108.995,110.241 C 106.561,113.787 100.102,115.298 98.9802,118.661 C 98.4706,120.189 100.85,122.502 102.079,122.624 C 106.596,123.069 115.039,119.503 116.961,118.275 C 123.312,114.221 122.968,109.87 124.405,102.381 C 131.765,97.6802 136.647,93.1993 136.647,93.1993 C 136.647,93.1993 148.55,94.3977 157.286,90.5616 C 163.361,111.568 146.921,129.761 139.357,144.99 C 134.158,146.023 128.943,148.991 127.028,151.478 C 117.128,165.796 115.099,170.709 99.7569,196.641 C 97.7234,202.165 116.772,247.431 146.695,273.541 C 225.713,304.974 236.718,305.732 308.175,301.966 C 312.202,315.354 311.164,325.464 318.511,331.503 C 343.88,352.356 362.264,349.136 375.905,378.312 C 378.238,383.302 366.139,404.262 354.864,419.992 C 335.022,430.754 330.308,434.016 323.126,441.233 C 340.584,442.049 342.435,446.444 350.456,455.26 C 354.957,439.115 367.799,446.606 369.292,453.456 C 373.345,445.266 377.214,441.229 376.907,434.019 C 389.08,412.728 409.053,387.878 417.985,368.293 C 420.082,363.696 416.307,361.333 412.494,354.509 C 400.681,351.844 390.357,344.003 389.932,338.436 C 388.774,323.304 410.024,300.78 412.455,292.548 C 421.138,263.152 401.589,231.117 375.665,214.838 C 330.432,186.435 291.213,216.66 236.117,172.393 z"
         style="fill:#ffffff;fill-rule:evenodd;stroke:#000000;stroke-width:2" />
      <path
         id="path2740"
         d="M 374.694,334.623 C 378.657,342.161 382.62,346.979 392.411,356.381 C 409.662,357.08 402.124,369.746 398.938,374.719"
         style="fill:#ffffff;fill-rule:evenodd;stroke:#000000;stroke-width:2" />
      <path
         id="path2742"
         d="M 82.4156,90.5742 C 90.8499,86.3983 93.3224,96.5084 84.8333,97.3875"
         style="fill:#ffffff;fill-rule:evenodd;stroke:#000000;stroke-width:2" />
      <g
         id="g2744">
        <g
           id="g2746">
          <path
             id="path2748"
             d="M 16.1714,309.181 L 21.9838,315.226 L 50.1158,283.839 L 43.3734,277.794"
             style="fill:#ffffff;fill-rule:evenodd;stroke:#000000;stroke-width:2" />
          <path
             id="path2750"
             d="M 13.4723,282.586 C 14.4022,289.328 13.4141,302.522 16.2622,309.323 C 23.2952,300.778 36.0825,288.514 44.3942,279.098 C 40.6161,273.402 32.8856,274.855 31.8394,270.031"
             style="fill:#ffffff;fill-rule:evenodd;stroke:#000000;stroke-width:2" />
        </g>
        <g
           id="g2752">
          <path
             id="path2754"
             d="M 309.904,461.142 L 309.904,468.582 L 351.056,468.117 L 351.056,461.375"
             style="fill:#ffffff;fill-rule:evenodd;stroke:#000000;stroke-width:2" />
          <path
             id="path2756"
             d="M 349.312,449.053 C 349.657,449.656 350.532,453.656 351.172,461.142 C 340.129,460.852 322.285,460.677 309.788,460.91 C 314.031,452.308 319.146,445.74 323.505,440.683 C 338.282,441.656 348.628,447.856 349.312,449.053 z"
             style="fill:#ffffff;fill-rule:evenodd;stroke:#000000;stroke-width:2" />
        </g>
      </g>
      <g
         id="g2758">
        <g
           id="g2760">
          <g
             id="g2762">
            <path
               id="path2764"
               d="M 121.748,35.5975 C 140.726,45.259 162.167,52.9199 160.088,89.4 C 162.624,87.7105 164.609,85.6782 167.925,85.5872 C 169.644,50.1286 146.895,40.4426 128.314,30.9375 C 126.003,31.1633 122.925,31.3406 121.748,35.5975 z"
               style="fill:#ffffff;fill-rule:evenodd;stroke:#000000;stroke-width:2" />
            <path
               id="path2766"
               d="M 164.803,27.3861 C 166.661,39.3212 142.059,61.3898 115.036,87.2866 C 118.189,90.4392 119.371,91.1148 122.467,93.1415 C 154.839,61.8401 175.162,41.5731 174.711,29.8632 C 171.334,28.5121 169.476,26.4854 164.803,27.3861 z"
               style="fill:#ffffff;fill-rule:evenodd;stroke:#000000;stroke-width:2" />
            <path
               id="path2768"
               d="M 85.5364,76.2523 C 87.3942,71.0166 88.3513,70.2848 91.6165,68.821 C 99.3856,71.6359 111.039,80.2494 117.288,87.737 C 113.629,91.6215 113.347,91.2274 110.758,94.943 C 104.79,87.8495 94.7129,80.362 85.5364,76.2523 z"
               style="fill:#ffffff;fill-rule:evenodd;stroke:#000000;stroke-width:2" />
          </g>
          <g
             id="g2770">
            <path
               id="path2772"
               d="M 120.274,99.3283 C 127.311,105.408 139.64,109.293 124.102,131.305 C 126.129,134.176 126.467,134.627 130.182,135.584 C 149.436,107.041 131.59,100.116 123.652,93.6986"
               style="fill:#ffffff;fill-rule:evenodd;stroke:#000000;stroke-width:2" />
            <path
               id="path2774"
               d="M 163.057,54.3426 L 163.057,54.3426 C 163.057,58.506 159.635,61.881 155.413,61.881 C 151.191,61.881 147.769,58.506 147.769,54.3426 C 147.769,54.3426 147.769,54.3426 147.769,54.3426 L 147.769,54.3426 C 147.769,50.1793 151.191,46.8042 155.413,46.8042 C 159.635,46.8042 163.057,50.1793 163.057,54.3426 z"
               style="fill:#ffffff;stroke:#000000;stroke-width:2" />
            <path
               id="path2776"
               d="M 124.748,94.2012 L 124.748,94.2012 C 124.748,98.3645 121.326,101.74 117.104,101.74 C 112.882,101.74 109.46,98.3645 109.46,94.2012 C 109.46,94.2012 109.46,94.2012 109.46,94.2012 L 109.46,94.2012 C 109.46,90.0378 112.882,86.6628 117.104,86.6628 C 121.326,86.6628 124.748,90.0378 124.748,94.2012 z"
               style="fill:#ffffff;stroke:#000000;stroke-width:2" />
            <path
               id="path2778"
               d="M 131.504,138.564 L 131.504,138.564 C 131.504,142.727 128.082,146.102 123.86,146.102 C 119.638,146.102 116.215,142.727 116.215,138.564 C 116.215,138.564 116.215,138.564 116.215,138.564 L 116.215,138.564 C 116.215,134.4 119.638,131.025 123.86,131.025 C 128.082,131.025 131.504,134.4 131.504,138.564 z"
               style="fill:#ffffff;stroke:#000000;stroke-width:2" />
          </g>
          <path
             id="path2780"
             d="M 123.652,129.729 C 125.397,122.523 126.467,121.003 130.407,115.992 C 195.825,141.833 255.106,132.882 297.498,125.901 C 303.409,127.927 304.141,132.825 298.849,135.584 C 251.897,145.549 170.097,146.393 123.652,129.729 z"
             style="fill:#ffffff;fill-rule:evenodd;stroke:#000000;stroke-width:2" />
        </g>
        <g
           id="g2782">
          <path
             id="path2784"
             d="M 229.594,187.393 C 228.392,190.398 227.631,191.16 224.786,196.209 C 179.143,191.16 155.139,195.207 97.0334,213.36 C 97.4341,210.835 97.3941,208.631 99.4378,202.781 C 135.944,190.999 178.221,179.578 229.594,187.393 z"
             style="fill:#ffffff;fill-rule:evenodd;stroke:#000000;stroke-width:2" />
          <path
             id="path2786"
             d="M 98.9701,204.25 C 99.2567,199.213 101.205,188.604 107.943,184.111 C 163.04,167.89 201.382,169.838 237.613,171.582 C 234.732,177.174 233.267,179.195 228.661,189.326 C 189.272,181.664 136.643,190.125 98.9701,204.25 z"
             style="fill:#ffffff;fill-rule:evenodd;stroke:#000000;stroke-width:2" />
          <g
             id="g2788">
            <path
               id="path2790"
               d="M 318.36,199.712 C 323.569,199.952 324.691,200.513 329.58,200.673 C 345.871,228.416 325.098,259.893 345.609,284.987 C 344.605,290.497 344.648,291.398 344.648,291.398 C 344.648,291.398 343.785,291.355 336.396,290.418 C 314.436,258.2 339.759,236.018 318.36,199.712 z"
               style="fill:#ffffff;fill-rule:evenodd;stroke:#000000;stroke-width:2" />
            <path
               id="path2792"
               d="M 356.621,205.352 C 361.83,205.593 363.955,205.833 366.484,208.575 C 381.419,234.66 361.399,284.981 381.308,296.959 C 381.15,302.771 381.401,303.22 381.401,303.22 C 381.401,303.22 380.349,303.098 376.315,305.255 C 349.682,289.77 375.608,240 356.621,205.352 z"
               style="fill:#ffffff;fill-rule:evenodd;stroke:#000000;stroke-width:2" />
            <path
               id="path2794"
               d="M 286.599,232.133 C 335.217,247.17 378.256,260.022 413.532,294.092 C 416.999,290.775 417.602,287.911 415.642,281.579 C 378.256,249.921 329.036,237.597 290.519,224.143"
               style="fill:#ffffff;fill-rule:evenodd;stroke:#000000;stroke-width:2" />
            <path
               id="path2796"
               d="M 339.367,243.368 L 339.367,243.368 C 339.37,247.852 335.86,251.49 331.528,251.493 C 327.196,251.496 323.682,247.863 323.679,243.379 C 323.679,243.376 323.679,243.372 323.679,243.368 L 323.679,243.368 C 323.676,238.884 327.185,235.247 331.517,235.244 C 335.849,235.24 339.364,238.873 339.367,243.357 C 339.367,243.361 339.367,243.364 339.367,243.368 z"
               style="fill:#ffffff;stroke:#000000;stroke-width:2" />
            <path
               id="path2798"
               d="M 376.246,257.129 L 376.246,257.129 C 376.249,261.613 372.74,265.251 368.408,265.254 C 364.076,265.257 360.561,261.624 360.558,257.14 C 360.558,257.137 360.558,257.133 360.558,257.129 L 360.558,257.129 C 360.555,252.645 364.065,249.008 368.397,249.005 C 372.729,249.001 376.243,252.634 376.246,257.118 C 376.246,257.122 376.246,257.125 376.246,257.129 z"
               style="fill:#ffffff;stroke:#000000;stroke-width:2" />
          </g>
        </g>
        <g
           id="g2800">
          <path
             id="path2802"
             d="M 174.648,280.798 C 165.944,296.761 161.3,308.733 142.585,318.228 C 143.273,322.494 142.722,324.283 142.722,324.283 L 173.822,327.035 C 173.822,327.035 174.717,324.868 175.611,321.806 C 162.607,309.249 174.751,299.891 182.904,282.862"
             style="fill:#ffffff;fill-rule:evenodd;stroke:#000000;stroke-width:2" />
          <path
             id="path2804"
             d="M 179.464,296.21 L 179.464,296.21 C 179.467,300.694 175.958,304.332 171.626,304.335 C 167.294,304.338 163.78,300.706 163.777,296.222 C 163.777,296.218 163.777,296.214 163.777,296.21 L 163.777,296.21 C 163.774,291.726 167.283,288.089 171.615,288.086 C 175.947,288.083 179.461,291.715 179.464,296.199 C 179.464,296.203 179.464,296.207 179.464,296.21 z"
             style="fill:#ffffff;stroke:#000000;stroke-width:2" />
          <path
             id="path2806"
             d="M 169.604,282.439 C 174.188,273.805 184.648,258.15 184.648,258.15 L 204.261,261.135 C 204.261,261.135 192.253,277.272 184.685,288.252 C 176.933,287.292 175.292,286.556 169.604,282.439 z"
             style="fill:#ffffff;fill-rule:evenodd;stroke:#000000;stroke-width:2" />
          <path
             id="path2808"
             d="M 318.96,218.922 C 318.96,218.922 248.18,258.79 249.885,273.927 C 213.642,273.287 207.459,271.901 179.105,267.531 C 207.459,221.801 230.271,181.4 230.271,181.4"
             style="fill:#ffffff;fill-rule:evenodd;stroke:#000000;stroke-width:2" />
          <path
             id="path2810"
             d="M 221.573,174.426 C 235.265,126.056 271.112,152.89 268.36,165.344 C 271.387,179.448 251.228,191.558 309.918,177.453 C 364.205,176.559 369.09,188.256 339.091,214.608 C 294.231,250.868 214.211,241.51 221.573,174.426 z"
             style="fill:#ffffff;fill-rule:evenodd;stroke:#000000;stroke-width:2" />
        </g>
      </g>
      <path
         id="path2812"
         d="M 140.106,248.73 C 144.222,228.627 133.142,221.424 123.644,216.438 C 112.925,200.838 108.448,192.773 95.7842,185.729 C 86.9197,183.434 78.0553,184.304 66.6581,186.995 C 47.6628,206.149 16.1067,249.259 13.4714,259.494 C 10.8464,269.688 12.205,276.431 13.4713,283.238 C 21.0695,278.647 26.4515,276.115 34.6827,272.157 C 35.3159,255.853 44.5761,263.926 46.3965,267.409 C 50.7496,263.609 50.7496,261.156 51.4619,256.328 C 52.1742,251.5 51.4619,254.033 49.879,249.68 C 60.3263,234.246 69.1887,217.31 81.5377,218.021 C 92.5391,218.654 94.387,233.15 98.9501,243.348 C 102.734,251.806 122.609,273.854 129.026,281.338 C 133.615,281.27 137.574,281.576 142.639,281.338 C 148.338,269.387 155.54,265.113 161.951,263.926"
         style="fill:#ffffff;fill-rule:evenodd;stroke:#000000;stroke-width:2" />
      <g
         id="g2814">
        <path
           id="path2816"
           d="M 111.641,51.2665 C 113.529,53.2664 116.941,52.4975 118.398,51.6382 C 123.273,48.7632 121.216,47.7417 126.14,46.3668 C 131.065,44.9919 134.29,50.1666 134.29,50.1666 C 134.29,50.1666 131.236,51.6476 129.74,52.6664 C 127.924,53.903 125.149,59.9077 120.741,59.2161 C 117.117,58.6475 114.073,54.5588 111.641,51.2665 z"
           style="fill:#ffffff;fill-rule:evenodd;stroke:#000000;stroke-width:2" />
        <path
           id="path2818"
           d="M 127.815,53.3666 C 127.815,55.0856 125.849,56.4818 123.415,56.4915 C 120.981,56.5011 118.993,55.1207 118.966,53.4019 C 118.938,51.683 120.882,50.2713 123.316,50.2423 C 125.749,50.2133 127.759,51.5779 127.814,53.2964 L 123.39,53.3666 L 127.815,53.3666 z"
           style="stroke:#000000;stroke-width:2" />
      </g>
    </g>
  </g>
</svg>
