<?xml version="1.0" encoding="UTF-8" standalone="no"?>
<!-- Created with Inkscape (http://www.inkscape.org/) -->

<svg
   width="210mm"
   height="297mm"
   viewBox="0 0 300 424.28571"
   version="1.1"
   id="svg1"
   inkscape:version="1.3 (0e150ed6c4, 2023-07-21)"
   sodipodi:docname="title.svg"
   xml:space="preserve"
   inkscape:export-filename="title.png"
   inkscape:export-xdpi="90"
   inkscape:export-ydpi="90"
   xmlns:inkscape="http://www.inkscape.org/namespaces/inkscape"
   xmlns:sodipodi="http://sodipodi.sourceforge.net/DTD/sodipodi-0.dtd"
   xmlns="http://www.w3.org/2000/svg"
   xmlns:svg="http://www.w3.org/2000/svg"><sodipodi:namedview
     id="namedview1"
     pagecolor="#d2d2d2"
     bordercolor="#eeeeee"
     borderopacity="1"
     inkscape:showpageshadow="0"
     inkscape:pageopacity="0"
     inkscape:pagecheckerboard="0"
     inkscape:deskcolor="#505050"
     inkscape:document-units="mm"
     inkscape:zoom="1.0381216"
     inkscape:cx="334.73921"
     inkscape:cy="665.14366"
     inkscape:window-width="1920"
     inkscape:window-height="991"
     inkscape:window-x="-9"
     inkscape:window-y="-9"
     inkscape:window-maximized="1"
     inkscape:current-layer="layer1" /><defs
     id="defs1"><rect
       x="68.114059"
       y="419.58261"
       width="996.41138"
       height="168.53364"
       id="rect1" /></defs><g
     inkscape:label="Layer 1"
     inkscape:groupmode="layer"
     id="layer1"><text
       xml:space="preserve"
       transform="matrix(0.26458333,0,0,0.26458333,-17.840716,80.039721)"
       id="text1"
       style="font-size:171.429px;line-height:1;font-family:'Aref Ruqaa';-inkscape-font-specification:'Aref Ruqaa';text-align:center;letter-spacing:0px;white-space:pre;shape-inside:url(#rect1);fill:#000000;fill-opacity:1;stroke:none;stroke-width:1.5"><tspan
         x="127.63236"
         y="562.45903"
         id="tspan4"><tspan
           style="font-family:'Bronco Personal Use';-inkscape-font-specification:'Bronco Personal Use'"
           id="tspan3">HORSIN' AROUND</tspan></tspan></text><g
       id="g2"
       transform="matrix(0.40692651,0,0,0.40692651,-121.09025,188.25918)"><g
         style="fill:#000000;fill-opacity:1"
         id="g1"
         transform="translate(863.31429,-16.272184)"><g
           id="use1"
           transform="matrix(0.61445816,0,0,0.61445816,46.601575,119.9885)"><path
             style="stroke:none"
             d="m 50.40625,0 c 0,-4.894531 0.597656,-9.394531 1.796875,-13.5 1.195313,-4.101563 2.546875,-7.203125 4.046875,-9.296875 0.800781,-1.101563 2.023438,-2.578125 3.671875,-4.421875 1.65625,-1.851563 3.832031,-4.128906 6.53125,-6.828125 3.195313,-3.195313 5.46875,-5.820313 6.8125,-7.875 1.351563,-2.050781 2.03125,-4.128906 2.03125,-6.234375 0,-1 -0.101562,-1.894531 -0.296875,-2.6875 h -0.59375 c -0.105469,0.792969 -0.835937,1.9375 -2.1875,3.4375 -1.34375,1.5 -3.015625,2.554687 -5.015625,3.15625 -1,0.304687 -2.328125,0.578125 -3.984375,0.828125 -1.648437,0.25 -3.621094,0.476562 -5.921875,0.671875 -1.199219,0.804687 -2.476562,1.90625 -3.828125,3.3125 -1.34375,1.398437 -2.765625,3.09375 -4.265625,5.09375 -3,3.898437 -5.703125,5.84375 -8.109375,5.84375 -2.59375,0 -4.71875,-0.296875 -6.375,-0.890625 -1.648437,-0.601563 -2.96875,-1.707031 -3.96875,-3.3125 L 24,-43.34375 c 0.695313,-1.300781 1.421875,-2.953125 2.171875,-4.953125 0.75,-2 1.578125,-4.25 2.484375,-6.75 0.894531,-2.601563 1.816406,-4.828125 2.765625,-6.671875 0.945313,-1.851563 1.820313,-3.28125 2.625,-4.28125 1.695313,-2.195313 3.148438,-5.445313 4.359375,-9.75 0.195313,-0.601563 0.367188,-1.175781 0.515625,-1.71875 0.15625,-0.550781 0.28125,-1.078125 0.375,-1.578125 l -9,-30.156255 c -0.804687,0.19922 -1.652344,0.29688 -2.546875,0.29688 -2.804687,0 -5.203125,-0.97266 -7.203125,-2.92188 -2,-1.94531 -3,-4.36718 -3,-7.26562 0,-2.90625 1,-5.33203 3,-7.28125 2,-1.94531 4.398438,-2.92187 7.203125,-2.92187 2.800781,0 5.203125,0.97656 7.203125,2.92187 2,1.94922 3,4.375 3,7.28125 0,1.79297 -0.402344,3.41797 -1.203125,4.875 -0.804687,1.44922 -1.855469,2.62109 -3.15625,3.51562 l 13.5,20.406255 c 0.90625,-0.5 1.957031,-1.097656 3.15625,-1.796875 0.894531,-2.90625 1.34375,-5.957031 1.34375,-9.15625 0,-1.60156 -0.101562,-3.17578 -0.296875,-4.71875 -0.199219,-1.55078 -0.496094,-3.12891 -0.890625,-4.73438 H 53.25 l -0.296875,-10.64062 c -2.804687,0 -5.203125,-0.97266 -7.203125,-2.92188 -2,-1.95703 -3,-4.38281 -3,-7.28124 0,-2.90625 1,-5.33204 3,-7.28125 2,-1.94532 4.398438,-2.92188 7.203125,-2.92188 2.800781,0 5.203125,0.97656 7.203125,2.92188 2,1.94921 3,4.375 3,7.28125 0,2.30468 -0.625,4.30468 -1.875,5.99999 -1.25,1.69922 -2.828125,2.89844 -4.734375,3.59375 l 6.453125,19.5 c 0.101563,0.5 0.253906,1 0.453125,1.5 l 0.140625,0.75 H 64.5 c 0.394531,-0.89453 0.691406,-2.39062 0.890625,-4.48437 0.207031,-2.10156 0.3125,-3.85938 0.3125,-5.26563 0,-0.89453 -0.02734,-1.78906 -0.07813,-2.6875 -0.05469,-0.90625 -0.125,-1.70703 -0.21875,-2.40625 h 5.25 c 2.394531,1.30469 4.441406,3.20313 6.140625,5.70313 l 2.546875,-16.95313 c -2.398437,-0.40625 -4.398437,-1.53125 -6,-3.37499 -1.59375,-1.85157 -2.390625,-4.07813 -2.390625,-6.67188 0,-2.90625 1,-5.33203 3,-7.28125 2,-1.94531 4.398438,-2.92187 7.203125,-2.92187 2.789063,0 5.1875,0.97656 7.1875,2.92187 2,1.94922 3,4.375 3,7.28125 0,2.59375 -0.804687,4.82031 -2.40625,6.67188 -1.59375,1.84374 -3.589844,2.96874 -5.984375,3.37499 l 4.640625,31.95313 c 2.601563,1.292969 5.15625,2.792969 7.65625,4.5 L 105.75,-121.95313 c -1.89844,-0.69531 -3.46875,-1.89453 -4.71875,-3.59375 -1.250005,-1.69531 -1.875005,-3.69531 -1.875005,-5.99999 0,-2.90625 1.000005,-5.33204 3.000005,-7.28125 2,-1.94532 4.39453,-2.92188 7.1875,-2.92188 2.90625,0 5.33203,0.97656 7.28125,2.92188 1.94531,1.94921 2.92188,4.375 2.92188,7.28125 0,2.89843 -1,5.32421 -3,7.28124 -2,1.94922 -4.40235,2.92188 -7.20313,2.92188 l -1.1875,41.84375 20.54686,-31.20313 c -1.30468,-0.89453 -2.35545,-2.0664 -3.15623,-3.51562 -0.80469,-1.45703 -1.20313,-3.08203 -1.20313,-4.875 0,-2.90625 1,-5.33203 3,-7.28125 2,-1.94531 4.39843,-2.92187 7.20311,-2.92187 2.90625,0 5.33204,0.97656 7.28125,2.92187 1.94532,1.94922 2.92188,4.375 2.92188,7.28125 0,2.89844 -1,5.32031 -3,7.26562 -2,1.94922 -4.40234,2.92188 -7.20313,2.92188 -0.89843,0 -1.74609,-0.0977 -2.54687,-0.29688 l -14.70312,48.906255 c 1.90625,4.59375 3.40625,9.496094 4.5,14.703125 1.40625,6.898437 2.45703,14.023437 3.15625,21.375 C 125.64844,-16.875 126,-9.25 126,-1.34375 V 0 Z m 28.046875,-133.65625 c 1.09375,0 1.988281,-0.375 2.6875,-1.125 0.707031,-0.75 1.0625,-1.625 1.0625,-2.625 0,-1.09375 -0.355469,-1.98828 -1.0625,-2.6875 -0.699219,-0.70703 -1.59375,-1.0625 -2.6875,-1.0625 -1,0 -1.875,0.35547 -2.625,1.0625 -0.75,0.69922 -1.125,1.59375 -1.125,2.6875 0,1 0.375,1.875 1.125,2.625 0.75,0.75 1.625,1.125 2.625,1.125 z M 50.25,-128.84375 c 1.101563,0 2.003906,-0.375 2.703125,-1.125 0.695313,-0.75 1.046875,-1.625 1.046875,-2.625 0,-1.10156 -0.351562,-2.00391 -1.046875,-2.70312 -0.699219,-0.69532 -1.601562,-1.04688 -2.703125,-1.04688 -1,0 -1.875,0.35156 -2.625,1.04688 -0.75,0.69921 -1.125,1.60156 -1.125,2.70312 0,1 0.375,1.875 1.125,2.625 0.75,0.75 1.625,1.125 2.625,1.125 z m 56.40625,0 c 1.09375,0 1.98828,-0.375 2.6875,-1.125 0.70703,-0.75 1.0625,-1.625 1.0625,-2.625 0,-1.10156 -0.35547,-2.00391 -1.0625,-2.70312 -0.69922,-0.69532 -1.59375,-1.04688 -2.6875,-1.04688 -1,0 -1.875,0.35156 -2.625,1.04688 -0.75,0.69921 -1.125,1.60156 -1.125,2.70312 0,1 0.375,1.875 1.125,2.625 0.75,0.75 1.625,1.125 2.625,1.125 z m -81.609375,12.4375 c 1.101563,0 2.003906,-0.375 2.703125,-1.125 0.695313,-0.75 1.046875,-1.625 1.046875,-2.625 0,-1.09375 -0.351562,-1.98828 -1.046875,-2.6875 -0.699219,-0.70703 -1.601562,-1.0625 -2.703125,-1.0625 -1,0 -1.875,0.35547 -2.625,1.0625 -0.75,0.69922 -1.125,1.59375 -1.125,2.6875 0,1 0.375,1.875 1.125,2.625 0.75,0.75 1.625,1.125 2.625,1.125 z m 106.796875,0 c 1.10156,0 2.00391,-0.375 2.70312,-1.125 0.69532,-0.75 1.04688,-1.625 1.04688,-2.625 0,-1.09375 -0.35156,-1.98828 -1.04688,-2.6875 -0.69921,-0.70703 -1.60156,-1.0625 -2.70312,-1.0625 -1,0 -1.875,0.35547 -2.625,1.0625 -0.75,0.69922 -1.125,1.59375 -1.125,2.6875 0,1 0.375,1.875 1.125,2.625 0.75,0.75 1.625,1.125 2.625,1.125 z m -25.9375,106.359375 h 9.89063 c 0,-7.800781 -0.42969,-15.398438 -1.28125,-22.796875 -0.84375,-7.40625 -2.16797,-14.207031 -3.96875,-20.40625 -1.80469,-6.195313 -4.20313,-11.394531 -7.20313,-15.59375 -2.19922,-3.207031 -4.449219,-6.007813 -6.75,-8.40625 -2.292969,-2.394531 -4.640625,-4.34375 -7.046875,-5.84375 l -1.34375,0.890625 c 4.195313,3.5 7.671875,7.375 10.421875,11.625 2.75,4.25 4.82031,9.578125 6.21875,15.984375 1.40625,6.398437 2.10938,14.695312 2.10938,24.890625 0,3.699219 -0.0781,7.199219 -0.23438,10.5 -0.14844,3.304687 -0.41797,6.355469 -0.8125,9.15625 z M 53.703125,-74.09375 c 1.300781,0 2.550781,-0.5 3.75,-1.5 1.195313,-1 2.445313,-1.5 3.75,-1.5 l 1.203125,0.140625 v -1.34375 L 58.203125,-79.5 c -0.605469,-0.195313 -1.234375,-0.34375 -1.890625,-0.4375 -0.648437,-0.101563 -1.265625,-0.15625 -1.859375,-0.15625 -1.605469,0 -2.933594,0.304687 -3.984375,0.90625 -1.042969,0.59375 -1.5625,1.4375 -1.5625,2.53125 v 1.0625 L 49.046875,-75 c 0.800781,0.605469 2.351563,0.90625 4.65625,0.90625 z m -15,32.25 c 0.300781,-1.40625 1,-3.03125 2.09375,-4.875 1.101563,-1.851563 2.65625,-3.476563 4.65625,-4.875 l -0.609375,-0.75 c -2.792969,0.09375 -5.0625,0.820312 -6.8125,2.171875 -1.75,1.34375 -2.875,3.015625 -3.375,5.015625 0.394531,0.804687 1.015625,1.53125 1.859375,2.1875 0.851563,0.648437 1.582031,1.023437 2.1875,1.125 z m 0,0"
             id="path2" /></g></g></g></g></svg>
